<mxfile host="app.diagrams.net" modified="2023-06-15T07:14:07.295Z" agent="Mozilla/5.0 (Macintosh; Intel Mac OS X 10_15_7) AppleWebKit/537.36 (KHTML, like Gecko) Chrome/114.0.0.0 Safari/537.36" version="21.4.0" etag="W7Mng0olvH8zkUxFTtja" type="github">
  <diagram name="페이지-1" id="QHcxAcuqgISnj0CmdXZe">
    <mxGraphModel>
      <root>
        <mxCell id="0" />
        <mxCell id="1" parent="0" />
      </root>
    </mxGraphModel>
  </diagram>
</mxfile>
